<?xml version="1.0" encoding="UTF-8" standalone="no"?>
<svg width="32" height="32" viewBox="0 0 32 32" fill="none" xmlns="http://www.w3.org/2000/svg">
  <!-- Gradient Background -->
  <defs>
    <linearGradient id="grad" x1="0%" y1="0%" x2="100%" y2="100%">
      <stop offset="0%" style="stop-color:#0f172a;stop-opacity:1" />
      <stop offset="100%" style="stop-color:#1e293b;stop-opacity:1" />
    </linearGradient>
    <filter id="shadow" x="-20%" y="-20%" width="140%" height="140%">
      <feDropShadow dx="0" dy="1" stdDeviation="1" flood-opacity="0.3" flood-color="#000"/>
    </filter>
  </defs>
  
  <!-- Background with rounded corners -->
  <rect width="32" height="32" rx="8" fill="url(#grad)"/>
  
  <!-- Red accent line -->
  <rect x="0" y="0" width="32" height="3" fill="#FF0000" rx="1.5"/>
  
  <!-- J letter with gradient -->
  <path d="M10 7H14V17C14 18.6569 12.6569 20 11 20H10C8.34315 20 7 18.6569 7 17V15H10V17C10 17.5523 10.4477 18 11 18C11.5523 18 12 17.5523 12 17V7Z" fill="white" filter="url(#shadow)"/>
  
  <!-- F letter with gradient -->
  <path d="M17 7H25V9H19V12H24V14H19V20H17V7Z" fill="#FF0000" filter="url(#shadow)"/>
  
  <!-- Play button icon -->
  <circle cx="16" cy="24" r="5" fill="#FF0000" opacity="0.9"/>
  <path d="M14.5 21.5L19.5 24L14.5 26.5V21.5Z" fill="white"/>
</svg>
